<svg xmlns="http://www.w3.org/2000/svg" width="32" height="32" viewBox="0 0 180 180" fill="none">
  <!-- Chair elements from MySeatMap logo, extracted and optimized for favicon -->
  <g transform="scale(0.5) translate(90, 75)">
    <!-- Chair seat and backrest -->
    <path fill="#00bba7" d="M 64.28125 104.726562 C 64.496094 104.855469 64.933594 105.199219 64.964844 105.453125 C 65.914062 113.976562 66.488281 126.753906 63.285156 134.585938 C 84.335938 133.917969 105.390625 133.417969 126.449219 133.082031 C 131.984375 133.011719 137.539062 133.042969 143.074219 133.046875 C 144.867188 133.046875 149.683594 133.539062 150.90625 133.359375 C 150.949219 133.125 150.972656 132.964844 150.945312 132.730469 C 150.421875 128.160156 145.457031 125.195312 141.492188 124.105469 C 136.164062 122.636719 121.800781 123.324219 115.570312 123.328125 C 106.105469 123.28125 96.640625 123.277344 87.179688 123.324219 C 85.421875 123.34375 77.9375 123.78125 76.421875 122.707031 C 74.6875 121.472656 74.820312 117.996094 76.351562 116.554688 C 77.351562 115.613281 80.109375 115.308594 81.621094 115.261719 C 96.613281 114.800781 111.59375 114.585938 126.597656 114.699219 C 135.875 114.714844 145.757812 113.90625 153.21875 120.601562 C 158.597656 125.425781 159.308594 130.058594 159.667969 136.785156 C 163.472656 139.210938 165.363281 141.636719 167.0625 145.851562 C 169.851562 154.757812 166.453125 163.871094 158.40625 168.75 C 153.816406 171.53125 148.195312 171.660156 143.074219 172.5 C 140.152344 172.980469 137.046875 174.558594 134.023438 174.871094 C 123.886719 176.453125 113.761719 176.484375 103.527344 176.5 C 89.332031 176.519531 75.203125 176.625 61.347656 173.023438 C 53.515625 171.085938 45.996094 167.277344 41.785156 160.046875 C 38.082031 153.679688 37.96875 147.773438 39.734375 140.835938 C 36.335938 132.832031 33.988281 124.15625 31.273438 115.898438 C 30.101562 112.328125 28.925781 108.664062 28.027344 105.023438 C 29.5625 105.03125 31.09375 105.054688 32.628906 105.09375 C 33.617188 105.125 35.566406 105.152344 36.332031 105.863281 C 39.082031 108.417969 43.421875 130.5 47.230469 134.289062 C 47.726562 134.785156 48.121094 134.925781 48.816406 134.917969 C 50.640625 134.894531 52.523438 134.3125 53.777344 132.941406 C 58.484375 127.800781 56.878906 114.816406 56.652344 108.328125 C 59.515625 107.207031 61.71875 106.410156 64.28125 104.726562 Z M 72.867188 166.410156 C 95.929688 169.15625 119.269531 168.441406 142.121094 164.292969 C 149.789062 162.871094 158.121094 162.847656 159.351562 152.933594 C 160.191406 146.191406 152.347656 141.933594 146.570312 141.902344 C 142.941406 141.859375 139.25 141.785156 135.617188 141.945312 L 73.820312 143.199219 C 67.808594 143.316406 61.757812 143.429688 55.75 143.179688 C 52.683594 143.054688 50.808594 142.90625 48.578125 145.253906 C 48.214844 145.644531 47.867188 146.042969 47.53125 146.453125 C 45.046875 160.707031 60.945312 164.371094 71.667969 166.207031 Z M 72.867188 166.410156 " />
    
    <!-- Chair frame/base -->
    <path fill="#00bba7" d="M 24.894531 94.921875 C 24.417969 92.226562 23.675781 89.527344 22.90625 86.902344 C 19.230469 74.328125 16.375 61.578125 13.304688 48.851562 C 11.914062 43.097656 12.085938 37.570312 12.15625 31.695312 C 12.167969 25.785156 12.570312 20.332031 16.105469 15.285156 C 18.582031 11.746094 22.386719 9.367188 26.648438 8.691406 C 36.324219 7.105469 42.945312 14.902344 44.058594 23.726562 C 44.839844 29.925781 43.933594 35.769531 45.246094 41.800781 C 46.21875 45.367188 47.890625 48.945312 48.984375 52.492188 C 51.769531 60.570312 54.921875 68.496094 57.5 76.65625 C 58.898438 81.089844 60.335938 84.464844 61.035156 89.082031 C 58.085938 89.902344 55.964844 90.4375 52.96875 90.980469 C 51.441406 87.613281 50.347656 83.453125 49.257812 79.871094 C 47.699219 74.757812 46.0625 69.664062 44.351562 64.597656 C 41.703125 56.882812 38.574219 49.050781 36.007812 41.347656 C 34.011719 35.367188 38.753906 20.785156 30.6875 17.644531 C 29.171875 17.050781 27.484375 17.097656 26 17.765625 C 24.117188 18.621094 22.304688 20.695312 21.730469 22.691406 C 20.304688 27.652344 20.714844 33.765625 20.402344 38.917969 C 20.070312 44.414062 22.445312 50.136719 23.441406 55.46875 C 26.496094 69.082031 30.328125 82.503906 34.109375 95.925781 C 57.144531 97.601562 84.335938 86.179688 104.332031 75.207031 C 112.535156 70.707031 120.101562 65.679688 127.90625 60.585938 C 125.328125 58.828125 114.453125 54.492188 113.875 53.007812 C 113.816406 50.753906 115.464844 50.269531 117.417969 50.371094 C 123.34375 50.691406 128.75 54.328125 134.585938 54.632812 C 136.265625 54.238281 138.25 52.996094 139.683594 52.21875 C 145.992188 48.785156 151.574219 43.515625 158.335938 41.089844 C 160.039062 40.476562 167.851562 40.507812 168.960938 42 C 170.757812 44.417969 166.683594 49.5625 164.644531 50.835938 C 160.304688 54.085938 155.921875 56.066406 151.132812 58.425781 C 147.730469 60.121094 142.429688 62.113281 139.535156 64.523438 C 138.472656 65.410156 136.605469 69.09375 135.710938 70.460938 C 135.074219 71.820312 134.148438 73.203125 132.695312 73.742188 C 130.121094 73.574219 130.667969 70.167969 130.746094 68.3125 C 130.71875 67.253906 130.71875 66.527344 130.792969 65.472656 C 104.230469 82.289062 77.609375 100.953125 45.007812 103.101562 C 34.988281 103.761719 19.65625 103.519531 11.847656 95.097656 C 10.398438 93.539062 11.78125 90.722656 13.472656 89.605469 C 14.378906 89.527344 15.039062 89.984375 15.753906 90.570312 C 18.539062 92.859375 21.449219 93.898438 24.894531 94.921875 Z M 24.894531 94.921875 " />
  </g>
</svg>